<?xml version="1.0" standalone="no"?>
<!DOCTYPE svg PUBLIC "-//W3C//DTD SVG 20010904//EN"
 "http://www.w3.org/TR/2001/REC-SVG-20010904/DTD/svg10.dtd">
<svg version="1.0" xmlns="http://www.w3.org/2000/svg"
 width="300.000000pt" height="169.000000pt" viewBox="0 0 300.000000 169.000000"
 preserveAspectRatio="xMidYMid meet">
<metadata>
Created by potrace 1.10, written by Peter Selinger 2001-2011
</metadata>
<g transform="translate(0.000000,169.000000) scale(0.100000,-0.100000)"
fill="#000000" stroke="none">
<path d="M986 898 c3 -4 -1 -8 -9 -8 -34 0 -38 -81 -4 -102 8 -5 7 -8 -4 -8
-45 0 -16 -79 29 -80 13 0 20 -4 17 -10 -3 -5 3 -10 15 -10 12 0 18 5 15 10
-4 6 5 10 20 10 15 0 24 4 20 10 -8 13 8 13 21 1 17 -18 120 -18 109 -1 -3 6
1 10 10 10 9 0 13 -4 10 -10 -3 -5 0 -11 7 -12 7 0 20 -2 28 -3 8 -1 23 5 33
13 11 10 17 11 17 4 0 -7 9 -12 19 -12 11 0 21 -6 24 -12 3 -10 9 -8 24 5 11
9 23 14 26 10 4 -4 37 -6 74 -5 44 1 69 -2 74 -10 7 -10 11 -10 21 0 6 6 22
12 33 12 13 0 27 10 33 23 l11 22 0 -22 c1 -32 32 -46 61 -26 13 10 25 12 29
6 3 -6 57 -10 125 -9 129 1 140 6 115 52 -10 20 -10 28 1 48 7 14 10 31 7 39
-6 16 -57 29 -57 15 0 -17 -44 3 -70 32 -23 25 -32 27 -98 29 -77 1 -83 -2
-115 -52 -14 -21 -22 -25 -35 -18 -21 11 -171 11 -193 0 -12 -6 -25 0 -46 19
-16 16 -34 27 -39 25 -6 -2 -17 3 -24 12 -7 8 -20 15 -29 15 -20 0 -61 -40
-61 -59 0 -10 -12 -11 -49 -6 -52 7 -97 -7 -85 -27 4 -7 3 -8 -4 -4 -6 4 -9
19 -6 35 8 39 -18 62 -66 59 -22 -1 -37 -5 -34 -10z m79 -24 c21 -22 4 -44
-19 -24 -16 13 -46 7 -46 -9 0 -5 17 -18 38 -28 32 -16 37 -23 37 -53 0 -29
-5 -36 -27 -44 -30 -11 -73 5 -82 31 -9 21 23 28 38 8 8 -11 20 -16 30 -12 23
9 20 35 -6 43 -32 9 -58 34 -58 55 0 43 63 65 95 33z m245 2 c0 -8 -7 -16 -15
-20 -24 -9 -17 -26 10 -26 16 0 25 6 25 15 0 8 7 15 15 15 8 0 15 -7 15 -16 0
-10 6 -14 15 -10 10 4 15 -1 15 -15 0 -15 -5 -19 -15 -15 -11 4 -15 -2 -15
-25 0 -17 6 -32 15 -35 21 -8 19 -34 -3 -34 -28 0 -42 21 -42 62 0 34 -2 37
-22 34 -21 -3 -23 -8 -20 -50 2 -40 0 -46 -18 -46 -17 0 -20 7 -20 51 0 31 -4
48 -10 44 -5 -3 -10 1 -10 9 0 9 5 16 10 16 6 0 10 8 10 18 0 10 5 23 12 30
16 16 48 15 48 -2z m480 -76 c0 -85 -1 -90 -21 -90 -21 0 -21 3 -14 76 7 75 7
76 -16 72 -26 -3 -39 -28 -15 -28 9 0 16 -7 16 -15 0 -8 -7 -15 -15 -15 -11 0
-15 -12 -15 -45 0 -33 -4 -45 -15 -45 -11 0 -15 12 -15 44 0 30 -5 46 -15 50
-8 3 -15 10 -15 16 0 5 7 10 15 10 8 0 15 8 15 18 0 29 21 42 67 42 l43 0 0
-90z m68 73 c5 -17 -26 -29 -40 -15 -6 6 -7 15 -3 22 9 14 37 9 43 -7z m62
-66 c0 -6 7 -3 15 7 14 18 55 33 55 21 0 -3 -10 -19 -21 -35 l-22 -28 22 -31
c22 -31 22 -31 2 -31 -11 0 -26 10 -32 22 l-12 23 -10 -23 c-6 -12 -18 -22
-29 -22 -23 0 -23 6 2 37 18 23 18 28 6 42 -7 9 -19 26 -25 39 -12 23 -12 23
18 7 17 -8 31 -21 31 -28z m-718 6 c24 -21 23 -58 -2 -83 -24 -24 -48 -25 -78
-4 -26 18 -30 65 -6 88 20 21 63 20 86 -1z m303 8 c7 -12 -14 -25 -40 -26 -15
0 -20 -7 -20 -25 0 -21 5 -25 29 -25 38 0 45 -22 10 -31 -32 -8 -54 4 -71 36
-12 25 -3 56 21 72 16 11 64 10 71 -1z m119 -7 c36 -36 6 -104 -46 -104 -25 0
-58 35 -58 62 0 49 69 78 104 42z m226 -44 c0 -50 -3 -60 -17 -60 -15 0 -18
10 -18 60 0 50 3 60 18 60 14 0 17 -10 17 -60z"/>
<path d="M1137 794 c-12 -13 -8 -42 8 -48 25 -9 46 5 43 28 -3 21 -37 34 -51
20z"/>
<path d="M1554 785 c-4 -9 0 -23 9 -32 21 -21 49 -9 45 19 -4 28 -45 38 -54
13z"/>
<path d="M2020 769 c-7 -11 -9 -32 -6 -45 5 -20 13 -24 46 -24 30 0 40 4 45
20 9 30 -3 57 -28 64 -36 10 -46 7 -57 -15z m64 -14 c8 -23 -4 -45 -25 -45
-22 0 -34 22 -25 45 3 8 14 15 25 15 10 0 21 -7 25 -15z"/>
</g>
</svg>
